<svg xmlns="http://www.w3.org/2000/svg" viewBox="0 0 512 512" id="stethoscope"><path d="M363.205,304.265a38.187,38.187,0,0,0-38.168,38c0,18.607,13.963,34.123,30.963,37.366v30a66,66,0,1,1-132,0V303h14.1a70.706,70.706,0,0,0,66.287-45.967l12.391-33.879A69.625,69.625,0,0,0,321,198.822V43.985A6.74,6.74,0,0,0,314.3,37H297.9A21.706,21.706,0,0,0,276.99,22.179,22.169,22.169,0,1,0,298.138,51H307V198.822a56.324,56.324,0,0,1-3.352,19.6l-12.465,33.762A56.556,56.556,0,0,1,238.105,289h-44.23a56.652,56.652,0,0,1-53.151-36.811L128.342,218.31A55.7,55.7,0,0,1,125,198.822V51h8.843a22.168,22.168,0,1,0,21.148-28.819A21.706,21.706,0,0,0,134.082,37h-16.4A6.724,6.724,0,0,0,111,43.985V198.822a70.269,70.269,0,0,0,4.208,24.45l12.46,33.761A70.6,70.6,0,0,0,193.875,303H210V409.629a80,80,0,1,0,160,0V379.582a37.973,37.973,0,0,0-6.8-75.317Z"></path></svg>